<?xml version="1.0" encoding="iso-8859-1"?>
<!-- Generator: Adobe Illustrator 19.0.0, SVG Export Plug-In . SVG Version: 6.00 Build 0)  -->
<svg version="1.1" id="Layer_1" xmlns="http://www.w3.org/2000/svg" xmlns:xlink="http://www.w3.org/1999/xlink" x="0px" y="0px"
	 viewBox="0 0 512 512" style="enable-background:new 0 0 512 512;" xml:space="preserve">
<path style="fill:#FA004B;" d="M295.626,14.871c-9.379-9.379-24.584-9.379-33.963,0l-5.661,5.661l-5.661-5.661
	c-9.379-9.379-24.584-9.379-33.963,0c-9.379,9.379-9.379,24.584,0,33.963l39.624,39.624l39.624-39.624
	C305.004,39.456,305.004,24.25,295.626,14.871z"/>
<polyline style="fill:#FAEDD6;" points="192.257,304.309 192.257,127.916 231.986,160.101 280.016,160.101 319.746,127.916 
	319.746,304.309 "/>
<path style="fill:#36C9A3;" d="M352.064,304.031h96.063v89.885c0,60.887-49.359,110.246-110.246,110.246H174.121
	c-60.887,0-110.246-49.359-110.246-110.246v-89.885h96.063"/>
<rect x="63.871" y="304.029" style="fill:#FFFFFF;" width="384.253" height="32.021"/>
<path style="fill:#FA004B;" d="M368.075,504.163H143.927c-17.684,0-32.021-14.336-32.021-32.021l0,0h288.189l0,0
	C400.095,489.826,385.759,504.163,368.075,504.163z"/>
<g>
	<path style="fill:#FAEDD6;" d="M207.97,300.166v27.881c0,13.263-10.752,24.016-24.016,24.016l0,0
		c-13.263,0-24.016-10.752-24.016-24.016v-27.881c0-6.708,5.437-12.145,12.145-12.145h23.742
		C202.533,288.021,207.97,293.458,207.97,300.166z"/>
	<path style="fill:#FAEDD6;" d="M352.064,300.166v27.881c0,13.263-10.752,24.016-24.016,24.016l0,0
		c-13.263,0-24.016-10.752-24.016-24.016v-27.881c0-6.708,5.437-12.145,12.145-12.145h23.742
		C346.626,288.021,352.064,293.458,352.064,300.166z"/>
</g>
<g>
	<rect x="224.653" y="200.857" style="fill:#232323;" width="15.675" height="15.675"/>
	<rect x="272.722" y="200.857" style="fill:#232323;" width="15.675" height="15.675"/>
	<polygon style="fill:#232323;" points="272.721,232.205 240.327,232.205 240.327,247.88 247.642,247.88 247.642,256.24 
		263.317,256.24 263.317,247.88 272.721,247.88 	"/>
	<rect x="264.363" y="265.647" style="fill:#232323;" width="15.675" height="15.675"/>
	<path style="fill:#232323;" d="M256.002,99.543l-45.167-45.166c-6.016-6.017-9.329-14.015-9.329-22.525
		c0-8.508,3.313-16.507,9.329-22.524C216.851,3.314,224.85,0,233.36,0c8.508,0,16.508,3.314,22.524,9.331l0.118,0.118l0.118-0.119
		C262.136,3.314,270.135,0,278.643,0c8.509,0,16.509,3.314,22.525,9.331c6.016,6.016,9.329,14.014,9.329,22.523
		c0,8.509-3.313,16.508-9.329,22.525L256.002,99.543z M233.36,15.675c-4.322,0-8.384,1.682-11.44,4.738
		c-6.309,6.309-6.309,16.571,0,22.88l34.081,34.082l34.081-34.082c6.309-6.308,6.309-16.57,0-22.879v-0.001
		c-3.056-3.056-7.118-4.738-11.439-4.738s-8.383,1.682-11.438,4.738l-11.203,11.203l-11.203-11.202
		C241.743,17.357,237.68,15.675,233.36,15.675z"/>
</g>
<path style="fill:#FA004B;" d="M495.757,134.95c-9.379-9.379-24.584-9.379-33.963,0l-5.661,5.661l-5.661-5.661
	c-9.379-9.379-24.584-9.379-33.963,0c-9.379,9.379-9.379,24.584,0,33.963l39.624,39.624l39.624-39.624
	C505.135,159.534,505.135,144.329,495.757,134.95z"/>
<path style="fill:#232323;" d="M456.132,219.621l-45.167-45.165c-12.419-12.421-12.419-32.629,0-45.047
	c12.422-12.42,32.628-12.42,45.048,0l0.117,0.118l0.119-0.118c12.42-12.419,32.629-12.418,45.047,0
	c12.419,12.42,12.419,32.628,0,45.046L456.132,219.621z M433.49,135.761c-4.143,0-8.287,1.578-11.439,4.732
	c-6.308,6.307-6.308,16.57,0,22.88l34.081,34.081l34.082-34.082c6.308-6.308,6.308-16.571,0-22.879
	c-6.307-6.309-16.573-6.309-22.88,0l-11.203,11.201l-11.202-11.201C441.777,137.339,437.633,135.761,433.49,135.761z"/>
<path style="fill:#FA004B;" d="M95.493,134.95c-9.379-9.379-24.584-9.379-33.963,0l-5.661,5.661l-5.661-5.661
	c-9.379-9.379-24.584-9.379-33.963,0c-9.379,9.379-9.379,24.584,0,33.963l39.624,39.624l39.624-39.624
	C104.872,159.534,104.872,144.329,95.493,134.95z"/>
<g>
	<path style="fill:#232323;" d="M55.87,219.621l-45.168-45.165c-12.419-12.421-12.419-32.629,0-45.047
		c12.422-12.42,32.628-12.42,45.048,0l0.118,0.118l0.117-0.118c12.422-12.42,32.628-12.42,45.048,0
		c12.419,12.42,12.419,32.628,0,45.046L55.87,219.621z M33.228,135.762c-4.143,0-8.287,1.577-11.44,4.731
		c-6.308,6.307-6.308,16.57,0,22.88l34.082,34.081l34.081-34.082c6.308-6.308,6.308-16.571,0-22.879
		c-6.307-6.309-16.572-6.309-22.88,0l-11.202,11.201l-11.202-11.201C41.514,137.339,37.371,135.762,33.228,135.762z"/>
	<rect x="168.223" y="464.195" style="fill:#232323;" width="176.603" height="15.675"/>
	<path style="fill:#232323;" d="M359.502,296.194c-0.988-4.876-3.767-9.097-7.605-11.985v-12.198c0-8.92,7.257-16.177,16.177-16.177
		h16.01c17.564,0,31.853-14.29,31.853-31.853s-14.29-31.852-31.853-31.852h-16.01v15.675h16.01c8.921,0,16.179,7.257,16.179,16.177
		c0,8.921-7.257,16.179-16.179,16.179h-16.01c-17.564,0-31.852,14.289-31.852,31.852v8.173h-9.161V111.172l-49.884,41.614h-42.408
		l-50.872-41.337v168.734h-11.815c-9.658,0-17.736,6.889-19.582,16.01H56.037v97.722C56.037,459.028,109.008,512,174.12,512H337.88
		c65.112,0,118.084-52.972,118.084-118.084v-97.722L359.502,296.194L359.502,296.194z M311.87,300.166
		c0-2.374,1.932-4.307,4.306-4.307h23.743c2.374,0,4.306,1.933,4.306,4.307l0.001,27.881c0,8.921-7.257,16.179-16.179,16.179
		c-8.92,0-16.177-7.257-16.177-16.179v-27.881H311.87z M229.203,168.461h53.654l28.529-23.8v136.128
		c-7.701,1.906-13.64,8.276-14.913,16.206H215.53c-1.33-8.286-7.753-14.882-15.958-16.446V144.383L229.203,168.461z M296.23,329.389
		h-80.457c0.019-0.445,0.034-0.892,0.034-1.342v-15.378h80.389v15.378C296.195,328.497,296.211,328.944,296.23,329.389z
		 M167.776,300.166c0-2.374,1.932-4.307,4.306-4.307h23.743c2.374,0,4.306,1.933,4.306,4.307v27.881
		c0,8.921-7.257,16.179-16.177,16.179c-8.92,0-16.177-7.257-16.177-16.179v-27.881H167.776z M412.3,464.193h-51.799v15.675h32.996
		c-16.026,10.405-35.125,16.458-55.614,16.458h-163.76c-20.489,0-39.589-6.053-55.614-16.458h34.041v-15.675H99.702
		c-17.342-18.353-27.99-43.093-27.99-70.277v-48.852h24.405v-15.675H71.712v-17.52h80.389v16.177c0,0.45,0.016,0.897,0.034,1.342
		h-40.343v15.675h45.255c5.653,8.907,15.598,14.837,26.906,14.837c11.309,0,21.253-5.929,26.906-14.837h90.282
		c5.653,8.907,15.598,14.837,26.906,14.837s21.253-5.929,26.907-14.837h53.614v-15.675h-48.702c0.019-0.445,0.034-0.892,0.034-1.342
		v-16.177h80.388v17.52h-16.045v15.675h16.045v48.852C440.29,421.1,429.64,445.84,412.3,464.193z"/>
</g>
<g>
</g>
<g>
</g>
<g>
</g>
<g>
</g>
<g>
</g>
<g>
</g>
<g>
</g>
<g>
</g>
<g>
</g>
<g>
</g>
<g>
</g>
<g>
</g>
<g>
</g>
<g>
</g>
<g>
</g>
</svg>
