<?xml version="1.0" encoding="iso-8859-1"?>
<!-- Generator: Adobe Illustrator 19.0.0, SVG Export Plug-In . SVG Version: 6.00 Build 0)  -->
<svg version="1.1" id="Layer_1" xmlns="http://www.w3.org/2000/svg" xmlns:xlink="http://www.w3.org/1999/xlink" x="0px" y="0px"
	 viewBox="0 0 496.166 496.166" style="enable-background:new 0 0 496.166 496.166;" xml:space="preserve">
<path style="fill:#A3D5E0;" d="M248.079,0C111.074,0,0.004,111.062,0.004,248.083c0,137.005,111.07,248.083,248.075,248.083
	c137.013,0,248.083-111.078,248.083-248.083C496.162,111.062,385.092,0,248.079,0z"/>
<path style="fill:#93783D;" d="M35.12,375.33c43.334,72.37,122.477,120.836,212.959,120.836
	c90.488,0,169.631-48.466,212.967-120.836H35.12z"/>
<g>
	<path style="fill:#E0942F;" d="M273.345,91.508l-23.013-29.867c0,0-11.751-10.447-11.751,3.917c0,0,7.671,33.62,5.713,42.108
		L273.345,91.508z"/>
	<path style="fill:#E0942F;" d="M340.914,66.536c0-14.363-11.751-3.917-11.751-3.917L306.15,92.487l29.051,16.157
		C333.243,100.156,340.914,66.536,340.914,66.536z"/>
</g>
<path style="fill:#E79E2F;" d="M326.173,155.03c0,0,19.964-21.903,9.011-47.64c0,0-15.598-24.612-43.885-25.186
	c-19.283-0.398-39.171,7.18-45.698,19.585c-7.482,14.215,0,31.337,3.917,45.696c0,0-8.318,8.829-14.754,15.263
	c-6.436,6.442-41.2,16.739-56.648,37.343c-15.45,20.595-49.449,54.073-49.319,100.42c0,0,2.1,34.76,1.576,57.57
	c-0.176,7.604,29.867,17.103,29.867,17.103h107.999c0,0,15.708-3.48,14.161-9.013c-1.547-5.531-5.149-6.438-12.876-7.723h-12.872
	c0,0,10.491-9.234,14.161-21.888l11.587,19.31c0,0,9.052,16.885,11.586,19.313s14.222,2.793,19.314,0
	c5.091-2.792,7.492-14.938,5.148-19.313c-2.343-4.368-11.588-6.435-11.588-6.435l-3.862-88.837
	C302.998,260.6,333.898,212.964,326.173,155.03z"/>
<path style="fill:#E0942F;" d="M335.184,107.391c0,0-15.598-24.612-43.885-25.186c-19.283-0.398-39.171,7.18-45.698,19.585
	c-7.482,14.215,0,31.337,3.917,45.696c0,0-8.089,9.066-14.754,15.263c-32.905,30.603,68.234,97.851,68.234,97.851
	s30.9-47.636,23.175-105.569C326.173,155.03,346.138,133.127,335.184,107.391z"/>
<path style="fill:#E79E2F;" d="M248.408,399.245c-13.254,5.138-99.919,33.536-83.762-36.971l-34.274-4.192
	c0,0-8.324,35.528,9.303,52.177c17.627,16.647,52.88,37.701,119.03-8.438C258.706,401.82,261.663,394.108,248.408,399.245z"/>
<path style="fill:#E09C4B;" d="M289.973,130.785c-8.033,0-14.547,6.235-14.547,13.921c0,7.688,6.515,13.92,14.547,13.92
	c8.037,0,14.549-6.231,14.549-13.92C304.522,137.021,298.01,130.785,289.973,130.785z"/>
<g>
	<path style="fill:#EAAA54;" d="M277.403,127.151c-8.033,0-14.547,6.231-14.547,13.916c0,7.689,6.515,13.925,14.547,13.925
		c8.035,0,14.549-6.235,14.549-13.925C291.953,133.383,285.438,127.151,277.403,127.151z"/>
	<path style="fill:#EAAA54;" d="M302.904,127.151c-8.033,0-14.547,6.231-14.547,13.916c0,7.689,6.515,13.925,14.547,13.925
		c8.035,0,14.55-6.235,14.55-13.925C317.454,133.383,310.939,127.151,302.904,127.151z"/>
</g>
<path style="fill:#D1814B;" d="M293.567,127.331h-6.642c0,0-3.278,8.626-3.278,10.73c0,2.111,3.299,5.21,4.311,6.234
	c0.795,0.804,3.791,0.796,4.575,0c0.945-0.956,4.313-4.299,4.313-6.234C296.845,136.133,293.567,127.331,293.567,127.331z"/>
<path style="fill:#DD8645;" d="M293.567,127.331c-0.799-0.654-5.63-0.734-6.642,0c-1.012,0.734-3.278,8.626-3.278,10.73
	c0,2.111,13.199,1.936,13.199,0C296.845,136.133,294.367,127.985,293.567,127.331z"/>
<path style="fill:#D37611;" d="M270.854,110.466c-3.945-0.253-8.859,3.205-9.387,5.593c-0.461,2.559,4.374,7.906,8.302,8.354
	c4.948,0.565,10.472-2.827,10.472-5.21C280.242,116.356,276.698,110.841,270.854,110.466z"/>
<path style="fill:#915412;" d="M271.111,111.185c-2.735-0.092-6.273,3.183-6.725,5.355c-0.409,2.311,2.766,6.947,5.483,7.211
	c3.42,0.337,7.381-2.903,7.465-5.046C277.434,116.15,275.162,111.315,271.111,111.185z"/>
<path style="fill:#352E28;" d="M270.732,114.031c-0.993,0-1.796,2.433-1.796,3.427c0,0.991,0.803,2.773,1.796,2.773
	s1.796-1.782,1.796-2.773C272.528,116.464,271.725,114.031,270.732,114.031z"/>
<path style="fill:#D37611;" d="M318.729,116.059c-0.528-2.388-5.441-5.846-9.387-5.593c-5.843,0.375-9.387,5.891-9.387,8.737
	c0,2.383,5.524,5.775,10.472,5.21C314.355,123.965,319.19,118.617,318.729,116.059z"/>
<path style="fill:#915412;" d="M315.811,116.54c-0.452-2.173-3.99-5.447-6.725-5.355c-4.051,0.131-6.323,4.966-6.224,7.521
	c0.084,2.143,4.045,5.383,7.465,5.046C313.045,123.487,316.22,118.851,315.811,116.54z"/>
<path style="fill:#352E28;" d="M309.465,114.031c-0.993,0-1.796,2.433-1.796,3.427c0,0.991,0.803,2.773,1.796,2.773
	s1.796-1.782,1.796-2.773C311.261,116.464,310.458,114.031,309.465,114.031z"/>
<path style="fill:#E0942F;" d="M207.734,239.537c0,0,22.85,13.385,38.845,42.438c15.995,29.049,23.95,55.451,23.95,55.451
	l0.283-0.864C261.921,255.206,207.734,239.537,207.734,239.537z"/>
<g>
</g>
<g>
</g>
<g>
</g>
<g>
</g>
<g>
</g>
<g>
</g>
<g>
</g>
<g>
</g>
<g>
</g>
<g>
</g>
<g>
</g>
<g>
</g>
<g>
</g>
<g>
</g>
<g>
</g>
</svg>
