<?xml version="1.0" encoding="iso-8859-1"?>
<!-- Generator: Adobe Illustrator 19.0.0, SVG Export Plug-In . SVG Version: 6.00 Build 0)  -->
<svg version="1.1" id="Layer_1" xmlns="http://www.w3.org/2000/svg" xmlns:xlink="http://www.w3.org/1999/xlink" x="0px" y="0px"
	 viewBox="0 0 496.158 496.158" style="enable-background:new 0 0 496.158 496.158;" xml:space="preserve">
<path style="fill:#48A1AF;" d="M248.075,0C111.07,0,0,111.062,0,248.083c0,137.005,111.07,248.075,248.075,248.075
	c137.013,0,248.083-111.07,248.083-248.075C496.158,111.062,385.088,0,248.075,0z"/>
<path style="fill:#C2C6C5;" d="M248.442,205.5c-109.945,0-199.065,28.889-199.065,64.524c0,35.632,89.12,64.517,199.065,64.517
	s199.074-28.884,199.074-64.517C447.517,234.389,358.388,205.5,248.442,205.5z"/>
<g>
	<ellipse style="fill:#C8D6D4;" cx="248.439" cy="152.349" rx="148.56" ry="41.19"/>
	<path style="fill:#C8D6D4;" d="M248.442,220.009c-99.633,0-180.398,22.389-180.398,50.015c0,27.619,80.766,50.012,180.398,50.012
		c99.641,0,180.406-22.393,180.406-50.012C428.849,242.398,348.083,220.009,248.442,220.009z"/>
	<polygon style="fill:#C8D6D4;" points="397.008,152.345 99.877,152.345 68.984,267.079 427.9,267.079 	"/>
</g>
<path style="fill:#C4C4C4;" d="M248.442,120.886c-68.533,0-124.083,15.4-124.083,34.404c0,18.996,55.55,34.396,124.083,34.396
	s124.091-15.4,124.091-34.396C372.533,136.286,316.975,120.886,248.442,120.886z"/>
<g>
	<path style="fill:#F4F4F4;" d="M162.26,319.902l3.967,6.388c0.864-0.539,88.092-53.634,199.085-30.82l1.515-7.368
		C252.804,264.7,163.143,319.347,162.26,319.902z"/>
	<path style="fill:#F4F4F4;" d="M164.692,323.272c-12.397-18.942-47.662-17.229-66.602-4.828
		c-18.942,12.405,21.482,7.873,33.896,26.815c12.397,18.942-7.926,54.188,11.024,41.783
		C161.95,374.638,177.101,342.215,164.692,323.272z"/>
	<path style="fill:#F4F4F4;" d="M189.243,292.272c-1.129-0.811-2.686-0.551-3.5,0.574c-0.812,1.121-0.559,2.685,0.562,3.496
		c0.135,0.096,12.976,9.54,14.326,26.834c0.104,1.22,1.052,2.169,2.227,2.299c0.16,0.015,0.317,0.019,0.466,0.007
		c1.382-0.107,2.418-1.316,2.307-2.697C204.1,303.197,189.84,292.716,189.243,292.272z"/>
	<path style="fill:#F4F4F4;" d="M171.383,307.634c-1.125-0.811-2.682-0.558-3.5,0.559c-0.808,1.121-0.555,2.686,0.559,3.504
		c0.076,0.054,7.926,5.906,8.744,16.403c0.096,1.224,1.045,2.173,2.223,2.303c0.157,0.015,0.306,0.015,0.479,0.004
		c1.373-0.107,2.402-1.312,2.299-2.697C181.176,314.833,171.784,307.925,171.383,307.634z"/>
	<path style="fill:#F4F4F4;" d="M210.285,282.441c-1.128-0.815-2.696-0.559-3.504,0.566c-0.807,1.121-0.551,2.686,0.566,3.497
		c0.149,0.107,14.877,10.94,16.422,30.747c0.104,1.22,1.052,2.169,2.23,2.295c0.149,0.015,0.306,0.023,0.463,0.007
		c1.381-0.107,2.417-1.316,2.307-2.693C227.036,294.759,210.975,282.931,210.285,282.441z"/>
	<path style="fill:#F4F4F4;" d="M231.611,269.306c-1.082-0.873-2.658-0.708-3.523,0.367c-0.864,1.079-0.699,2.654,0.375,3.527
		c0.215,0.176,21.518,17.726,22.198,47.682c0.03,1.274,0.998,2.299,2.234,2.437c0.106,0.012,0.214,0.015,0.332,0.012
		c1.381-0.031,2.476-1.182,2.448-2.559C254.937,288.516,232.56,270.07,231.611,269.306z"/>
	<path style="fill:#F4F4F4;" d="M321.509,247.004c-0.85-1.098-2.426-1.297-3.52-0.452c-1.098,0.849-1.301,2.425-0.447,3.52
		c0.306,0.397,30.472,40.123,19.004,85.119c-0.337,1.339,0.471,2.708,1.813,3.045c0.111,0.031,0.229,0.054,0.345,0.065
		c1.221,0.134,2.387-0.646,2.7-1.874C353.487,289.013,322.816,248.695,321.509,247.004z"/>
	<path style="fill:#F4F4F4;" d="M292.043,252.382c-0.896-1.056-2.476-1.186-3.535-0.291c-1.06,0.891-1.182,2.479-0.29,3.535
		c0.283,0.329,28.054,33.689,19.78,73.33c-0.283,1.358,0.585,2.685,1.939,2.968c0.088,0.015,0.164,0.031,0.244,0.038
		c1.271,0.138,2.456-0.704,2.724-1.981C321.681,287.969,293.259,253.821,292.043,252.382z"/>
	<path style="fill:#F4F4F4;" d="M263.009,260.981c-0.976-0.987-2.559-0.998-3.542-0.026c-0.979,0.968-0.998,2.555-0.03,3.542
		c0.252,0.249,24.34,25.228,20.117,57.207c-0.181,1.37,0.787,2.632,2.165,2.815c0.015,0,0.034,0.004,0.05,0.004
		c1.35,0.149,2.582-0.807,2.754-2.161C289.074,287.912,264.076,262.06,263.009,260.981z"/>
	<path style="fill:#F4F4F4;" d="M389.024,246.354c-21.72-3.906-40.804-2.762-40.804-2.762s14.233,25.522,15.522,48.358
		c1.285,22.837-2.433,49.128-2.433,49.128s6.954,1.281,17.282,2.077c17.998,1.389,51.147-6.036,69.738-19.853
		c1.147-0.849-43.011,1.102-42.675,0.876c25.159-16.927,50.903-8.561,51.775-9.754c2.604-3.558,4.284-7.402,4.731-11.495
		C465.062,276.42,419.205,251.778,389.024,246.354z M411.1,281.477c-0.834,7.624-7.688,13.136-15.324,12.294
		c-7.623-0.83-13.132-7.688-12.298-15.316c0.83-7.631,7.688-13.136,15.32-12.306C406.426,266.987,411.933,273.85,411.1,281.477z"/>
</g>
<g>
</g>
<g>
</g>
<g>
</g>
<g>
</g>
<g>
</g>
<g>
</g>
<g>
</g>
<g>
</g>
<g>
</g>
<g>
</g>
<g>
</g>
<g>
</g>
<g>
</g>
<g>
</g>
<g>
</g>
</svg>
